

<svg xmlns="http://www.w3.org/2000/svg" xml:space="preserve" width="206.04mm" height="135.301mm" version="1.1" style="shape-rendering:geometricPrecision; text-rendering:geometricPrecision; image-rendering:optimizeQuality; fill-rule:evenodd; clip-rule:evenodd"
viewBox="0 0 3097 2033.72"
 xmlns:xlink="http://www.w3.org/1999/xlink"
 xmlns:xodm="http://www.corel.com/coreldraw/odm/2003">
 <defs>
  <style type="text/css">
   <![CDATA[
    .fil1 {fill:#00894A}
    .fil0 {fill:#2FB34B}
    .fil2 {fill:#FEFEFE}
   ]]>
  </style>
 </defs>
 <g id="Capa_x0020_1">
  <metadata id="CorelCorpID_0Corel-Layer"/>
  <g id="_2607999342560">
   <path class="fil0" d="M1812.78 1724.61c-8.07,-54.25 36.89,-54.71 43.38,-26.21 12.07,52.95 -38.55,58.72 -43.38,26.21zm-218.38 18.59c-21.55,2.4 -29.35,-1.2 -32.29,-21.24 -2.77,-18.85 1.54,-36.17 15.01,-40.34 15.05,-4.66 26.41,6.44 29.02,19.82 4.09,20.97 -2.6,29.35 -11.73,41.76zm172.4 -50.41c5.84,-6.32 7.13,-10.02 18.64,-11.41l1.11 62.27c-24.73,-2.17 -5.59,-19.98 -12.86,-39.44 -0.16,-0.42 -5.6,-9.69 -6.89,-11.41zm288.25 2.83c-0.05,-19.74 19.57,-18.83 34.78,-8.41l0.44 21.57c-9.3,6.36 -19.31,9.38 -23.88,20.92 7.41,2.6 6.89,0.46 12.76,1.48 16.95,2.93 6.84,-3.1 11.81,6.69 -1.69,3.23 0.52,6.36 -17.12,6.32 -6.82,-0.01 -14.09,-0.62 -20.85,-1.36 -2.43,-43.96 23.51,-25.17 25,-46.77 -13.84,-6.22 -8.55,3.22 -22.95,-0.44zm-250.92 54.59c12.62,3.68 39.8,-3.3 47.25,6.21 -0.6,0.39 -1.49,0.26 -1.85,1.09l-6.48 2.1c-45.31,6.46 -37.35,-26.62 -39.09,71.97 -10.35,-8.14 -5.89,-9.29 -6.13,-40.7l-0.16 -31.26c-14.56,-1.09 -36.91,3.46 -47.25,-3.21 3.92,-3.74 -1.08,-4.48 20.95,-3.86 8.28,0.23 16.49,0.53 24.63,-0.58 2.67,-9.77 1.12,-38.79 1.53,-53.99 0.45,-16.7 1.12,-14.06 5.67,-17.53 4.74,5.4 0.96,56.06 0.93,69.75zm0.58 -286.31l-0.48 72.53c-9.26,-6.25 -3.01,2.86 -6.2,-5.67l-0.35 -28.87c-0.08,-12.57 0.21,-25.16 -0.23,-37.72 -11.87,-1.07 -41.53,4.81 -47.07,-4.7 9.52,-6.11 35.36,-2.38 47.19,-3.41 0.79,-17.44 -4.22,-57.48 3,-70.91 7.68,5.21 4.17,22.04 4.1,31.9 -0.09,13.04 -0.44,26.56 0.44,39.51 8.28,-0.17 16.39,-0.01 24.64,-0.1 2.63,-0.03 8.6,-0.39 10.76,-0.25l11.71 3.25c-5.63,4.54 5.87,0.87 -7.27,4.28l-40.22 0.15zm-4.15 -223.95c-7.98,-12.26 -2.78,-59.69 -2.83,-77.42 -0.04,-14.31 -6.81,-68.5 5.48,-73.42 3.45,9.37 1.39,61.86 1.47,76.07 0.07,13.26 0.05,26.51 0.16,39.77l-0.84 30.42c-2.89,9.2 0.31,0.39 -3.44,4.58zm0 -295.57c-5.26,-7.6 -5.19,-141.57 0,-151.02 8.01,6.52 4.22,26.79 4.11,37.75l0.13 100.93c-0.54,14.92 -3.48,11.59 -4.24,12.34zm-3.14 -376.95c0.1,-12.83 0.28,-25.73 0.33,-38.57 0.11,-31.63 -3.55,-27.73 6.75,-31.33l0.24 72.27c13.3,-0.28 39.04,-4.78 47.92,3.67 -6.88,5.3 -11.62,3.62 -22.9,3.55 -8.34,-0.05 -16.47,0.1 -24.89,-0.15l-1.67 71.54c-6.54,-5.06 -3.69,0.3 -6.03,-8.16l0.71 -63.13c-8.91,-0.36 -17.59,-0.38 -26.51,-0.26 -12.86,0.18 -14.63,1.37 -21.28,-2.93 8.41,-11.25 29.5,2.01 47.34,-6.5zm19.13 -213.2c-2.57,-10.99 -1.69,-24.66 -1.93,-37.52 -0.59,-31.96 0.45,-25.66 9.79,-25.57 3.43,7.99 1.04,19.18 1.65,28.48 1.11,16.87 4.49,9.93 9.16,21 -4.53,6.48 -8.76,11.82 -18.68,13.61zm-58.82 -62.34c32.97,-15.52 41.88,46.32 18.99,59.43 -32.25,18.46 -45.66,-46.87 -18.99,-59.43zm312.97 11.15c-10.47,-2.16 -12.56,1.89 -16.57,-11.34 9.45,-3.21 29.05,-2.94 38.07,0.68 2.53,6.52 1.33,14.81 -2.22,22.16 -5.9,12.21 -34.86,19.01 -18.32,26.24 5.12,2.24 2.96,-2.03 14.73,-1.91l4.2 1.01c2.91,17.79 -29.88,19.02 -34.74,2.32 -6.3,-21.63 16.16,-21.01 23.82,-36.06 -0.64,-0.46 -1.57,-0.81 -2.14,-1.01l-6.84 -2.1zm-506.93 -8.44c12.95,-4.52 31.84,-11.19 34.47,6.16 -11.65,7.41 -11.01,-3.55 -25.88,4.76 -6.41,25.29 8.44,14 26.47,18.16l-2.67 29.57c-9.93,0.14 -24.68,1.32 -31.66,-2.03 0.89,-26.36 18.06,5.33 20.59,-15.91 -15.32,-7.99 -31.61,4.43 -21.32,-40.71zm235.07 -93.07c6.27,5.6 3.54,-0.21 5.85,9.05l0.38 61.91c18.42,5.53 32.88,-3.99 47.04,4.5 -10.78,8.68 -19.34,2.5 -47.19,4.33l-1.71 71.86c-8.09,-3.59 -5.27,-3.21 -5.72,-15.02 -0.69,-18.24 1.87,-46.51 -1.39,-56.86 -10.98,-0.7 -40.42,4.09 -45.52,-4.32 8.5,-5.7 29.01,-1.39 46.79,-3.26l0.17 -47.13 1.29 -25.06zm-244.66 72.64c8.06,0.31 15.71,0.1 23.76,0 10.39,-0.13 15.01,-0.88 21.35,2.81 -9.74,6.63 -30.75,2.77 -45.59,4.47l0.7 287.95c12.5,1.82 36.69,-4.09 44.98,4.53 -12.11,6.26 -30.7,2.02 -45.62,3.18l0.48 879.47c13.91,0.48 35.21,-2.92 45.25,2.89 -5.5,3.64 8.37,-1.82 -5,2.69 -7.95,2.68 -27.62,0.57 -40.39,1.63 -1.83,39.26 -5,264.1 1.23,288.64 7.45,0.44 15.07,0.25 22.57,0.15 3.46,-0.05 10.08,-0.25 13.14,0.32l4.37 1.38c0.51,0.16 1.59,1.61 1.94,1.01 0.35,-0.59 1.31,0.66 1.87,1.12 -11.74,6.32 -30.91,1.99 -45.62,2.88l-0 260.73 545.29 -1.87 -0.34 -257.46c-11.35,-2.57 -42.58,0.61 -44.25,-3.36 -0.33,-0.79 -1.28,-0.53 -1.84,-0.92l6.23 -3.58c7.27,-1.81 24.27,1.89 38.84,-1.79 4.51,-15.27 2.55,-252 1.4,-285.59 -17.27,-5.21 -37.46,3.43 -45.97,-5.99 11.13,-6.85 33.08,0.15 45.87,-4.76l0.28 -877.02c-14.25,-1.86 -36.04,2.9 -46.59,-3.76 6.83,-6.53 8.3,-4.56 20.99,-4.24 8.88,0.22 15.41,0.49 25.18,-0.94l0.26 -285.66c-14.89,-4.36 -34.75,0.6 -45.85,-3.46 5.21,-11.61 33.47,-4.06 45.75,-6.85l0.65 -258.45 -545.93 -0.62 0.64 260.46z"/>
   <path class="fil1" d="M171.68 788.7c9.3,-5.84 23.23,2.02 32.97,5.08l96.03 31.31c25.3,8.3 111.53,32.93 126.78,42.92 -30.96,-1.8 -80.25,-28.08 -107.94,-28.25l-0.25 353.38c16.34,2.81 83.99,-26.16 108.23,-27.83 -6.71,5.7 -22.03,9.17 -30.53,12.03 -10.61,3.57 -20.1,6.95 -31.94,10.48 -21.81,6.5 -42.2,13.63 -64.16,20.69 -22.21,7.15 -42.1,14.28 -63.89,20.99 -10.22,3.15 -21.15,7.13 -31.96,10.55 -5.95,1.88 -20.74,7.61 -26.91,6.85l-6.25 -2.17c12.02,-16.01 115.11,-32.39 138.66,-47.72 5.25,-6.72 1.37,-288.77 2.04,-342.2 0.35,-27.82 -11.89,-22.92 -37.77,-30.38 -17.46,-5.04 -35.23,-10.86 -52.86,-16.05 -9.01,-2.65 -17.84,-5.12 -26.68,-7.79 -25.86,-7.81 -15.65,-5.58 -23.56,-11.88zm-157.64 1229.47c17.64,3.7 177.65,1.41 208.99,1.35 64.65,-0.11 148.27,4.63 210.51,-0.7 3.15,-80.45 -0.29,-167.82 -0.11,-249.14l0.02 -1254.07c-0.06,-83.07 0.06,-166.15 0.04,-249.22 -0.02,-82.02 3.18,-170.44 0.1,-251.59 -63.09,-5.02 -145.28,-0.46 -210.56,-0.61 -37.28,-0.09 -183.74,-5.02 -208.8,1.3l-0.19 2002.68z"/>
   <path class="fil1" d="M2784.61 857.64l0.41 340.51 124.81 37.64c12.17,3.56 11.07,1.45 14.63,8.95 -8.96,7.31 -44.07,-8.75 -62.26,-14.37l-189.88 -62.4c1.97,-0.86 1.08,-1.14 5.33,-1.1 4.02,0.04 1.18,-0.25 5.83,0.74 20.29,4.35 69.7,24.54 93.25,27.09 2.72,-114.05 0.67,-238.68 0.61,-354.76 -28.08,1.36 -90.1,30 -107.78,27.13l126.9 -42.28c20.74,-6.76 41.9,-14.11 63.85,-20.96 11.55,-3.6 21.29,-6.47 32.24,-10.18 8.78,-2.97 19.34,-9.05 28.2,-6.75l3.66 1.81c-3.78,7.52 -3.3,6.1 -14.34,9.26l-102.14 30.35c-24.14,7.34 -23.27,1.7 -23.33,29.32zm-120.96 1161.89c70.22,-0.02 140.47,0.01 210.7,-0.01 31.04,-0.01 191.9,3.68 208.36,-1.42l0.74 -2002.76 -419.32 -1.03c-4.83,77.33 -0.31,170.34 -0.4,249.43l0.02 1503.29c-0.01,83.19 -2.26,169.77 -0.09,252.49z"/>
   <path class="fil1" d="M1261.91 1692.8c4.67,-6.64 8.46,-9.58 16.2,-12.68 6.85,9.87 4.42,18.27 4.49,33.9 0.12,27.54 3.66,28.81 -9.65,29.26 -11.29,-17.22 5.76,-23.19 -8.32,-44.84 -0.31,-0.48 -0.8,-1.23 -1.07,-1.68 -0.36,-0.6 -1.2,-3.19 -1.65,-3.95zm-243.56 37.13c13.25,6.21 17.58,-4.57 23.47,7.94 -3.9,8.14 -1.26,5.58 -15.07,6.11 -7.01,0.27 -15.44,-0.1 -22.5,-0.5 -5.47,-45.14 38.02,-33.74 22.65,-47.88 -6.77,-6.22 -2.27,-0.09 -13.71,-0.43l-4.61 -0.63c-0.59,-0.08 -1.59,-0.23 -2.3,-0.57 -2.59,-17.49 31.8,-20.01 35.41,-0.31 4.63,25.31 -27.7,21.51 -23.32,36.25zm252.79 -1439.96c10.61,14.31 16.89,15.64 13.03,42.75 -1.99,14.01 -13.77,26.78 -30.81,19.87 -16.66,-6.77 -29.7,-65.49 17.78,-62.61zm-241.53 12.93c-16.62,-0.56 -22.49,4.84 -24.29,-11.33l37.13 -0.97c7.07,42.05 -23.58,26.33 -23.84,49.77 11.18,0.49 5.89,-2.12 18.04,-1.38l3.94 0.98c7.15,26.9 -55.35,11.76 -30.62,-15.7 9.23,-10.25 15.85,-3.47 19.64,-21.37zm271.69 1716.24c-0.06,-3.4 0.1,-6.72 -0.6,-9.97l-2.83 -7.59c-7.25,-21.66 3.13,-145.26 -4.69,-167.93 -0.14,-0.39 -0.53,-1.17 -0.77,-1.77l0.66 -70.89c-9.43,-2.44 -13.81,-1.63 -22.75,-1.46 -3.38,0.06 -10.43,0.41 -13.45,0.18l-11.17 -3.28c3.26,-3.05 -2.08,-2.13 6.74,-4.05l39.71 -0.49 1.48 -71.36c1.6,-20.03 3.41,-131.78 -0.76,-144.22l-0.57 -72.04c-14.72,-0.48 -38.83,3.27 -47.66,-4.43 10.05,-7.57 32.91,-1.09 47.62,-4.89l0.42 -70.01c2.28,-23.89 2.11,-116.86 -2.56,-143.03 -2.66,-14.91 -1.39,-103.65 -1.54,-132.4 -0.1,-19.56 2.36,-17.79 5.38,-21.18l-0.98 0.69c-8.04,-14.36 -2.51,-120.08 -3.7,-146.52l-0.23 -140.65c0.08,-0.42 -5.34,3.47 3.58,-9.59 2.7,-19.71 4.08,-126.9 -0.18,-143.79l0.1 -70.1c-17.85,-3.75 -28.44,1.42 -43.07,-2.32 -0.59,-0.15 -1.71,-0.07 -2.12,-0.97 -0.41,-0.9 -1.38,-0.71 -2.05,-1.1 8.87,-8.04 23.55,-3.99 47.08,-4.58 0.26,-23.47 0.95,-50.85 0.55,-71.97 3.31,-20.44 2.02,-81.24 1.84,-109.1 -0.11,-16.15 -1.09,-21.32 8.38,-29.11 -1.12,-6.24 2.17,-1.58 -4.01,-3.95 -6.03,-3.51 -2.52,-0.74 -6.57,-4.51l-0.55 -68.66c-28.08,-3.34 -39.4,4.6 -46.16,-5.07 2.96,-1.89 0.87,-1.52 6.06,-2.65l18.41 -0.38c2.82,0.05 10.99,0.37 13.28,0.08 22.17,-2.81 2.01,-41.65 11.71,-73.61 3.5,-37.62 -2.24,-142.22 0.6,-167.44 1.21,-10.75 3,-9.73 5.56,-18.63 -35.86,-0.49 -289.22,-3.1 -302.69,1.67l-0.47 256.73c19.23,3.67 36.54,-2.52 46.65,4.24l-8.1 3.61c-3.23,0.66 -9.64,0.5 -13.13,0.42 -31.39,-0.67 -26.2,-7.59 -25.49,70.2 0.22,23.86 0.09,47.72 0.1,71.59 0.02,46.47 -2.2,99 0.3,144.71 17.77,6.52 37.05,-3.88 46.32,6.41 -11.63,6.75 -31.88,1.84 -46.27,3.95l-0.25 878.06 35.99 0.51c10.1,1.01 4.37,-0.99 10.41,3.02 -11.13,9.86 -29.04,1.52 -46.49,5.87l-0.13 284.95c21.55,6.29 37.62,-4.02 46.63,6.13 -12.02,7.84 -32.74,-1.58 -44.97,5.52 -3.89,8.66 -3.13,228.87 -1.47,255.87 15.44,4.86 267.53,2.51 302.88,1.32z"/>
   <path class="fil0" d="M2430.22 1756.43c9.91,-8.25 79.17,-3.42 98.17,-4.14 0.94,-12.41 0.52,-25.31 0.66,-38.29 0.11,-10.01 -3.78,-29.21 5.92,-33.41 0.86,1.93 6,142.31 -2.65,151.58 -8.51,-10.44 -1.85,-55.83 -3.54,-72.3 -18.38,-1.57 -88.84,3.59 -98.56,-3.45zm0.98 -296.95c16.99,-8.94 82.02,1.69 96.47,-4.94 7.75,-22.96 -7.6,-62.22 7.3,-69.44 4.45,13.42 1.12,59.57 1.22,77.03 0.08,13.23 0.1,26.55 0.26,39.77 0.17,14 2.38,28.35 -4.13,34.41 -8.03,-10.26 -0.38,-44.46 -3.63,-70.42 -0.73,-0.34 -1.78,-1.62 -2.23,-0.92 -0.45,0.7 -1.63,-0.67 -2.27,-0.79l-71.48 -0.41c-20.78,0.31 -17,0.14 -21.5,-4.3zm101.12 -219.44c-2.1,-2.96 -1.95,-0.91 -3.11,-6.1l0.1 -68.76c-0.07,-15.56 -3.59,-66.97 3.01,-76.36 7.73,4.79 4.07,24.39 4.14,33.94 0.09,13.26 0,26.51 0.06,39.77l-0.13 61.13c0.03,24.49 -3.58,9.62 -4.07,16.38zm0 -295.76c-7.78,-8.96 -3.08,-60.41 -3,-76.05 0.09,-18.29 -4.8,-62.21 3,-74.98 7.49,5.99 4.15,27.1 4.27,37.87 0.26,22.2 3.12,105.48 -4.27,113.16zm-5.3 -374.94c4.03,-10.51 2.34,-25.75 2.34,-37.82 -0.01,-32.01 -4.37,-30.3 5.61,-33.98 1.52,3.86 5.64,143.77 -2.65,151.25 -5.79,-8.21 -3.79,-20.24 -3.47,-35.08 0.28,-12.99 1.14,-23.29 -0,-36.48 -19.41,-1.11 -86.44,4.05 -98.69,-3.29 11.42,-10.85 75.3,-1.66 96.86,-4.6zm0.72 -297.26c5.68,-17.09 -4.56,-56.89 4.58,-70.85 6.19,4.57 4.03,3.01 4.07,14.57l0.06 103.62c-0.61,27.62 3.26,28.51 -4.12,33.49 -7.23,-9.37 -2.2,-54.62 -3.7,-70.07 -14.82,-4.01 -36.12,-2 -51.97,-2.03 -8.91,-0.02 -17.75,0.22 -26.64,0.39 -22.81,0.42 -16.95,-2.48 -19.22,-4.19 2,-1.06 -0.25,-1.05 6.22,-2.42l68.82 -0.6c3.59,0.05 10.16,0.47 13.33,0.24l8.58 -2.14zm-149.59 1747.24l275.11 0.2 0.45 -2004.12 -275.85 -0.95c2.91,3.13 -1.74,1.23 5.02,5.37 -3.96,10.75 1.41,-3.74 -6.04,9.01 -6.88,11.78 -4.23,27.67 -4.22,44.02l-0.02 1890.39c0,59.62 3.63,37.69 5.55,56.09z"/>
   <path class="fil0" d="M981.33 1693.3c5.26,24.77 -20.97,17.45 -24.01,36.61 15.46,6.18 17.69,-5.68 24.6,7.95 -5.64,9.06 -18.04,7.23 -38.01,5.88 -2.24,-50.7 22.21,-22.97 24.75,-48.79 -15.56,-3.53 -13.26,6.26 -24.49,-2.16 2.96,-17.45 33.38,-17.28 37.16,0.51zm-28.94 -1390.75c-11.32,-2.23 -7.48,1.78 -7.37,-9.65 8.98,-5.4 26.73,-3.08 37.31,-0.76 5.02,42.76 -26.08,24.6 -24.39,47.9 16.02,1.89 7.73,-4.78 22.23,-1.05 1.87,21.48 -35.08,22.48 -35.97,-6.32 7.7,-17.11 19.81,-13.69 24.63,-26.51l-9.09 -3.15c-3.87,-0.69 -4,0.2 -7.35,-0.46zm-236.16 1716.84l271.96 -1.12 -0.49 -257.74c-8.11,-1.55 -14.06,-1.16 -22.33,-0.99 -3.19,0.06 -10.31,0.3 -13.15,-0.12l-4.45 -1.15c-0.52,-0.14 -1.64,-0.03 -2.01,-0.87 -0.36,-0.84 -1.35,-0.55 -1.94,-0.96l6.66 -3.42c0.66,-0.15 1.38,-0.23 2.1,-0.33 8.84,-1.26 21.73,2.32 35.97,-2.24l-0.08 -285.45c-12.38,-2.74 -37.2,3.98 -44.66,-5.5 9.32,-5.97 38.97,-0.23 41.09,-5.28 0.36,-0.86 1.33,-0.62 1.89,-1.08 4.49,-10.99 2.63,-867.46 -0.1,-873.55 -3.03,-1.84 0.81,-0.75 -5.9,-2.12 -6.41,-1.31 2.38,-0.05 -4.7,-0.63 -2.61,-0.22 -7.87,0.06 -10.68,0.14l-21.81 -3.01c8.37,-9.63 32.16,-2.32 44.64,-5.78l-0.57 -283.68c-5.96,-4.16 -10.21,-3.62 -11.57,-3.77 -1.44,-0.16 -8.85,0.01 -10.76,0.05 -7.61,0.14 -14.65,0.81 -21.21,-1.11 4.99,-13.17 23.59,-0.36 44.14,-7.48l-0.06 -257.92 -274.16 0.01c-1.06,13.28 -3.38,14.62 -3.31,29.32l-0.12 1731.41c-0.02,41.54 0.22,83.06 0.12,124.61 -0.08,33.41 -6,96.72 5.46,119.79z"/>
   <path class="fil1" d="M569.48 1760.91l-4.43 70.73c-2.24,-3.09 -4.56,5.47 -4.13,-19.51 0.48,-27.71 -2.77,-122.71 4.13,-131.72 2.94,3.19 1.42,-1.55 2.85,4.85l0.2 55.25c0.04,18.66 13.15,11.64 55.27,11.76l42.62 4.15c-19.52,11.38 -73.65,-2.96 -96.52,4.48zm-1.23 -296.36l-0.04 63.94c-1.67,10.59 -1.02,4.99 -3.16,8.08 -4.1,-5.19 -4.14,-6.19 -4.23,-15.98 -0.07,-6.85 0.36,-14.34 0.38,-21.34l-0.08 -98.23c0,-2.68 -0.22,-8.16 0.67,-10.47 2.71,-7 0.14,-3.25 6.43,-6.26l0.15 71.66c15.26,1.67 34.37,0.69 49.71,0.71l37.31 -0.32c12.14,0.86 9.66,2.5 10.67,3.14 -11.65,9.68 -67.12,1.83 -97.81,5.07zm-3.2 -375.95c3.67,4.69 3.31,3.97 3.26,15.49 -0.03,6.2 -0.15,12.45 -0.18,18.67 -0.09,17.01 4.03,106.08 -3.08,117.3 -7.59,-10.13 -3.74,-62.24 -3.78,-74.87 -0.06,-16.99 -4.43,-66.08 3.78,-76.58zm0 -295.22c1.88,2.79 1.9,0.49 2.96,5.99l0.06 68.87c0,17.53 4.87,64.92 -3.02,76.55 -7.34,-8.49 -3.57,-13.34 -3.78,-34.12l0.01 -108.84c2.54,-15.12 -0.22,-2.91 3.78,-8.44zm0 -144.38c-2.24,-2.98 -4.62,4.64 -3.92,-19.33 0.6,-20.48 -4.35,-122.19 3.92,-132.55 6.95,9.06 2.7,58.79 3.49,71.27 13.48,3 59.4,1.13 78.83,1.05 22.74,-0.09 16.52,2.38 18.48,4.51 -16.29,9.75 -75.06,-2.24 -96.33,4.44 -5.81,18.9 4.78,54.59 -4.47,70.61zm0 -295.45c-8.37,-10.18 -3.53,-59.55 -3.78,-76.55 -0.2,-12.91 -3.61,-64.15 3.78,-75.21l3.18 35.44c-0.05,12 -0.95,24.04 0.77,35.88 19.5,2.94 76.51,-0.71 88.94,0.96l8.28 2.93c-15.63,11.29 -67.16,-1.86 -97.62,5.82l-0.14 55.31c-0.04,3.24 -0.1,7 -0.78,10.12 -1.11,5.06 -0.88,2.86 -2.62,5.3zm151.18 1665.84c-11.46,-23.07 -5.54,-86.38 -5.46,-119.79 0.1,-41.55 -0.14,-83.07 -0.12,-124.61l0.12 -1731.41c-0.07,-14.7 2.25,-16.04 3.31,-29.32l-270.05 0.05 -0.4 2004.05 272.6 1.04z"/>
   <path class="fil1" d="M2115.15 1692.8c0.58,-2.12 0.25,-13.08 19.59,-12.84 10.1,0.13 15.79,6.39 17.39,13.86 5.08,23.65 -25.03,18.85 -24.45,37.52 12.67,1.15 20.53,-3.46 25.08,6.53 -4,7.51 -2.26,5.58 -15.27,6.11 -13.39,0.55 -22.37,0.7 -23.27,-8.64 -2.82,-29.47 24.26,-21.79 24.51,-39.14 -12.05,-6.81 -12.78,5.15 -23.59,-3.41zm24.83 -1389.86c-9.67,-0.65 -16.11,1.68 -23.78,-2.06l-0.33 -9.83 37.01 -0.48c4.45,41.15 -20.53,28.1 -25.27,46.99 13.85,9.2 8.84,-5.93 25.25,3.23 -2.67,13.99 -12.38,14.25 -28.66,12.53 -27.18,-30.47 11.05,-30.08 15.77,-50.37zm238.18 1716.38c-1.92,-18.4 -5.54,3.53 -5.55,-56.09l0.02 -1890.39c-0.02,-16.34 -2.67,-32.23 4.22,-44.02 7.45,-12.75 2.08,1.74 6.04,-9.01 -6.76,-4.14 -2.12,-2.24 -5.02,-5.37 -33.56,-0.58 -254.16,-4.04 -267.95,1.85l-0.75 255.13c26.2,4.86 35.57,-0.14 44.87,5.57 -9.03,9.8 -31.81,1.98 -44.78,6.25l-0.01 284.12c9.19,3.49 13.02,2.43 22.81,2.14 17.13,-0.5 16.74,-0.85 21.99,4.43l-6.47 2.44c-12.23,2.5 -22.81,-1.71 -37.83,1.84l-0.57 877.11c18.67,4.11 33.37,-2.83 45.37,4.15 -13.59,10.81 -25.31,-0.04 -45.18,6.39l-0.3 284.46c24.43,6.42 36.91,-4.55 44.93,6.1 -0.65,0.37 -1.68,0.02 -2.07,0.88 -0.4,0.87 -1.56,0.66 -2.13,0.8 -16.41,3.96 -32.8,-2.34 -38.69,4.1 -5.84,10.46 -3.69,226.62 -1.32,255.06 15.61,6.35 233.77,2.76 268.37,2.05z"/>
   <path class="fil0" d="M1323.69 1681.4c35.34,-11.1 37.89,52.89 14.61,61.54 -19.29,7.17 -28.82,-7.5 -30.56,-23.69 -1.99,-18.52 1.35,-33.26 15.95,-37.84zm177.67 0.79c5.01,-1.4 15.71,-2.24 20.82,-1.85 11.01,0.84 9.88,-0.14 11.39,9.8 -8.81,5.66 -14.62,3.46 -24.64,5.53 10.53,9.21 34.63,1.78 28.04,33.13 -2.02,9.59 -8.29,14.01 -17.52,15.37 -23.51,3.48 -21.87,-8.35 -22.13,-8.96 8.99,-8.52 11.23,-1.75 25.91,-4.31 7.74,-29.72 -8.46,-13.8 -27.19,-21.55l5.31 -27.17zm-208.73 -889.95c8.26,2.83 3.44,-1.08 7.64,4.41 -1.05,23.93 4.95,136.64 -3.46,147.59 -8.42,-8.99 -3.54,-131.27 -4.18,-152zm19.13 -440c-5.07,-14.04 -4.13,-47.92 0.1,-62.38 11.95,2.55 9.91,1.7 9.75,16.31 -0.31,30.68 -1.13,19.77 8.27,34.47 -4.64,7.37 -9.35,13.73 -18.12,11.61zm191.12 -60.55c35.12,-17.67 44.02,49.67 20.01,60.38 -36.06,16.08 -44.26,-48.17 -20.01,-60.38zm-207.57 -91.26c5.34,3.85 2.09,-3.46 4.84,7.59l0.51 65.43c23.26,2.8 35.76,-3.48 46.93,3.54 -4.13,3.56 0.05,3.08 -8.66,4.31 -6.12,0.86 -23.88,-1.98 -38.85,0.76l-0.95 73.17c6.18,2.37 2.89,-2.29 4.01,3.95 -9.47,7.79 -8.49,12.96 -8.38,29.11 0.19,27.86 1.47,88.67 -1.84,109.1 7.17,0.85 3.54,-1.24 7.22,2.31l0.04 68.53c12.33,3.08 40.29,-4.01 47.02,5.71 -7.59,4.09 -14.51,3.53 -23.89,3.22 -26.32,-0.88 -23.82,-4.61 -23.28,39.2 0.31,25.04 4.3,31.93 -7.59,32.08 4.26,16.9 2.88,124.09 0.18,143.79 -8.92,13.06 -3.5,9.17 -3.58,9.59l0.23 140.65c1.2,26.44 -4.33,132.16 3.7,146.52l6.73 1.95 0.5 132.62c-0.09,10.44 0.41,10.78 -3.4,16.8 -2.66,-3.39 -2.46,1.45 -4.2,-8.75l1.34 -143.3c-3.03,3.39 -5.48,1.63 -5.38,21.18 0.15,28.75 -1.12,117.49 1.54,132.4 4.67,26.17 4.84,119.14 2.56,143.03 7.79,1.5 3.28,-1.71 7.44,2.97 0.33,18.61 -3.78,51.93 1.53,66.6 14.25,6.44 32.26,-3.18 45.62,4.98 -10.34,9.77 -21.02,0.63 -47.21,5.25l-0.35 68.99c-3.07,3.59 4.81,3.37 -6.83,2.59 4.17,12.45 2.36,124.19 0.76,144.22l6.28 1.67 0.85 70.15c8.99,0.3 18.99,0.33 28.01,0.19 21.04,-0.33 15.05,0.24 18.57,3.89 -2.58,1.67 -0.93,1.47 -5.71,2.55l-18.31 0.57c-27.63,-0.43 -23.76,-3.96 -23.25,39.3 0.3,25.66 4.11,32.78 -7.66,33.04 0.24,0.6 0.63,1.38 0.77,1.77 7.83,22.67 -2.56,146.27 4.69,167.93l2.83 7.59c0.7,3.25 0.54,6.57 0.6,9.97l242.26 0.17 -0.61 -259.8c-13.57,-0.64 -36.77,2.62 -45.22,-3.09 3.19,-2.74 -0.83,-0.95 4.89,-2.92 6.92,-2.38 27.3,-0.27 40.71,-2.14l-0.29 -287.41c-14.22,-1.05 -38.44,3.5 -46.58,-4.2 10.88,-6.09 32.07,-3.22 46.93,-2.97l-0.13 -879.96c-15.21,-0.09 -35.16,2.75 -47.35,-2.44 4.5,-5.12 4.37,-4.88 20.81,-4.8 9.15,0.05 17.17,0.57 26.67,-0.41l-0.34 -287.2c-12.88,-2.27 -36.95,3.87 -45.57,-4.99 10.98,-6 30.94,-2.23 45.92,-3.26l0.26 -259.59 -242.18 0.21c-2.56,8.91 -4.35,7.88 -5.56,18.63 -2.84,25.22 2.91,129.82 -0.6,167.44z"/>
   <path class="fil2" d="M2663.65 2019.52c-2.16,-82.72 0.08,-169.3 0.09,-252.49l-0.02 -1503.29c0.09,-79.09 -4.43,-172.1 0.4,-249.43l419.32 1.03 -0.74 2002.76c-16.46,5.1 -177.32,1.41 -208.36,1.42 -70.23,0.02 -140.48,-0.01 -210.7,0.01zm-2649.41 -2004.03c25.06,-6.33 171.52,-1.39 208.8,-1.3 65.28,0.15 147.47,-4.41 210.56,0.61 3.08,81.16 -0.12,169.57 -0.1,251.59 0.02,83.07 -0.09,166.15 -0.04,249.22l-0.02 1254.07c-0.18,81.32 3.26,168.69 0.11,249.14 -62.24,5.33 -145.86,0.59 -210.51,0.7 -31.34,0.06 -191.35,2.35 -208.99,-1.35l0.19 -2002.68zm1539.31 -1.77l545.93 0.62 -0.65 258.45c-12.28,2.79 -40.54,-4.76 -45.75,6.85 11.1,4.05 30.96,-0.9 45.85,3.46l-0.26 285.66c-9.77,1.43 -16.3,1.16 -25.18,0.94 -12.7,-0.32 -14.16,-2.29 -20.99,4.24 10.56,6.66 32.34,1.9 46.59,3.76l-0.28 877.02c-12.79,4.91 -34.74,-2.09 -45.87,4.76 8.5,9.42 28.69,0.78 45.97,5.99 1.16,33.59 3.11,270.31 -1.4,285.59 -14.58,3.69 -31.57,-0.02 -38.84,1.79l-6.23 3.58c0.57,0.39 1.51,0.13 1.84,0.92 1.67,3.97 32.9,0.79 44.25,3.36l0.34 257.46 -545.29 1.87 0 -260.73c14.71,-0.89 33.88,3.43 45.62,-2.88 -0.56,-0.46 -1.51,-1.72 -1.87,-1.12 -0.36,0.6 -1.43,-0.85 -1.94,-1.01l-4.37 -1.38c-3.06,-0.57 -9.68,-0.36 -13.14,-0.32 -7.5,0.1 -15.12,0.29 -22.57,-0.15 -6.23,-24.53 -3.06,-249.37 -1.23,-288.64 12.76,-1.06 32.44,1.05 40.39,-1.63 13.37,-4.51 -0.5,0.95 5,-2.69 -10.04,-5.81 -31.34,-2.4 -45.25,-2.89l-0.48 -879.47c14.92,-1.16 33.51,3.08 45.62,-3.18 -8.29,-8.63 -32.48,-2.71 -44.98,-4.53l-0.7 -287.95c14.84,-1.69 35.85,2.17 45.59,-4.47 -6.34,-3.69 -10.97,-2.94 -21.35,-2.81 -8.05,0.1 -15.69,0.31 -23.76,-0l-0.64 -260.46zm-252.07 0.64l242.18 -0.21 -0.26 259.59c-14.98,1.03 -34.94,-2.74 -45.92,3.26 8.62,8.86 32.69,2.72 45.57,4.99l0.34 287.2c-9.5,0.98 -17.51,0.45 -26.67,0.41 -16.44,-0.08 -16.31,-0.32 -20.81,4.8 12.19,5.19 32.15,2.35 47.35,2.44l0.13 879.96c-14.85,-0.25 -36.05,-3.12 -46.93,2.97 8.14,7.69 32.36,3.15 46.58,4.2l0.29 287.41c-13.41,1.87 -33.8,-0.25 -40.71,2.14 -5.72,1.97 -1.7,0.18 -4.89,2.92 8.45,5.71 31.65,2.44 45.22,3.09l0.61 259.8 -242.26 -0.17c-35.35,1.19 -287.45,3.54 -302.88,-1.32 -1.67,-27.01 -2.42,-247.22 1.47,-255.87 12.24,-7.09 32.96,2.33 44.97,-5.52 -9.01,-10.14 -25.08,0.17 -46.63,-6.13l0.13 -284.95c17.45,-4.35 35.36,3.98 46.49,-5.87 -6.05,-4.01 -0.31,-2.01 -10.41,-3.02l-35.99 -0.51 0.25 -878.06c14.4,-2.11 34.64,2.81 46.27,-3.95 -9.27,-10.29 -28.55,0.11 -46.32,-6.41 -2.5,-45.71 -0.28,-98.24 -0.3,-144.71 -0.01,-23.86 0.11,-47.73 -0.1,-71.59 -0.71,-77.79 -5.9,-70.87 25.49,-70.2 3.49,0.07 9.9,0.23 13.13,-0.42l8.1 -3.61c-10.11,-6.75 -27.42,-0.57 -46.65,-4.24l0.47 -256.73c13.46,-4.77 266.83,-2.16 302.69,-1.67zm1076.39 0.09l275.85 0.95 -0.45 2004.12 -275.11 -0.2c-34.61,0.71 -252.77,4.29 -268.37,-2.05 -2.37,-28.44 -4.52,-244.59 1.32,-255.06 5.89,-6.44 22.29,-0.14 38.69,-4.1 0.56,-0.14 1.73,0.07 2.13,-0.8 0.39,-0.86 1.42,-0.51 2.07,-0.88 -8.03,-10.65 -20.5,0.32 -44.93,-6.1l0.3 -284.46c19.87,-6.43 31.59,4.42 45.18,-6.39 -12,-6.98 -26.7,-0.04 -45.37,-4.15l0.57 -877.11c15.03,-3.55 25.6,0.66 37.83,-1.84l6.47 -2.44c-5.25,-5.28 -4.86,-4.93 -21.99,-4.43 -9.8,0.29 -13.62,1.34 -22.81,-2.14l0.01 -284.12c12.97,-4.28 35.75,3.55 44.78,-6.25 -9.3,-5.7 -18.67,-0.71 -44.87,-5.57l0.75 -255.13c13.79,-5.89 234.39,-2.43 267.95,-1.85zm-1661.63 2004.94l-272.6 -1.04 0.4 -2004.05 270.05 -0.05 274.16 -0.01 0.06 257.92c-20.55,7.12 -39.15,-5.7 -44.14,7.48 6.56,1.92 13.6,1.24 21.21,1.11 1.91,-0.03 9.32,-0.21 10.76,-0.05 1.37,0.15 5.61,-0.39 11.57,3.77l0.57 283.68c-12.48,3.46 -36.28,-3.85 -44.64,5.78l21.81 3.01c2.82,-0.07 8.07,-0.35 10.68,-0.14 7.08,0.58 -1.71,-0.68 4.7,0.63 6.71,1.37 2.86,0.28 5.9,2.12 2.73,6.09 4.59,862.55 0.1,873.55 -0.56,0.46 -1.54,0.23 -1.89,1.08 -2.12,5.05 -31.78,-0.69 -41.09,5.28 7.46,9.48 32.29,2.76 44.66,5.5l0.08 285.45c-14.23,4.56 -27.13,0.98 -35.97,2.24 -0.72,0.1 -1.44,0.18 -2.1,0.33l-6.66 3.42c0.59,0.41 1.58,0.13 1.94,0.96 0.37,0.84 1.49,0.73 2.01,0.87l4.45 1.15c2.84,0.43 9.96,0.19 13.15,0.12 8.27,-0.17 14.22,-0.55 22.33,0.99l0.49 257.74 -271.96 1.12zm-714.11 -2016.13c-1.76,229.48 -3.74,2015.98 0,2027.38 15.07,5.58 348.42,1.84 379.98,1.84 768.33,-0.02 1541.33,2.7 2309.29,0.07l395.44 0.27c11.72,-1.04 10.13,2.38 10.02,-29.84 -2.23,-651.6 0.05,-1304.76 -0.06,-1956.67 -0,-1.58 0.63,-51.14 -4,-43.26 -0.36,0.62 -1.49,-0.69 -2.01,-0.81 -0.53,-0.13 -1.46,-0.51 -2.14,-0.64l-3032.67 -0.57c-16,0.01 -41.8,-3.49 -53.87,2.21z"/>
   <path class="fil2" d="M2784.61 857.64c0.06,-27.62 -0.81,-21.98 23.33,-29.32l102.14 -30.35c11.04,-3.16 10.56,-1.74 14.34,-9.26l-3.66 -1.81c-8.87,-2.29 -19.42,3.79 -28.2,6.75 -10.96,3.7 -20.69,6.57 -32.24,10.18 -21.95,6.84 -43.11,14.2 -63.85,20.96l-126.9 42.28c17.68,2.88 79.7,-25.76 107.78,-27.13 0.06,116.08 2.11,240.7 -0.61,354.76 -23.55,-2.55 -72.96,-22.74 -93.25,-27.09 -4.65,-1 -1.81,-0.7 -5.83,-0.74 -4.25,-0.04 -3.36,0.24 -5.33,1.1l189.88 62.4c18.19,5.62 53.29,21.68 62.26,14.37 -3.56,-7.49 -2.46,-5.39 -14.63,-8.95l-124.81 -37.64 -0.41 -340.51z"/>
   <path class="fil2" d="M204.65 793.78c-9.74,-3.06 -23.67,-10.92 -32.97,-5.08 7.91,6.3 -2.3,4.07 23.56,11.88 8.84,2.67 17.66,5.14 26.68,7.79 17.63,5.19 35.4,11.02 52.86,16.05 25.89,7.46 38.12,2.57 37.77,30.38 -0.67,53.43 3.21,335.48 -2.04,342.2 -23.55,15.34 -126.64,31.72 -138.66,47.72l6.25 2.17c6.17,0.76 20.97,-4.97 26.91,-6.85 10.81,-3.42 21.74,-7.4 31.96,-10.55 21.79,-6.71 41.67,-13.84 63.89,-20.99 21.95,-7.07 42.35,-14.2 64.16,-20.69 11.84,-3.53 21.33,-6.91 31.94,-10.48 8.49,-2.86 23.82,-6.33 30.53,-12.03 -24.25,1.67 -91.89,30.64 -108.23,27.83l0.25 -353.38c27.7,0.17 76.98,26.45 107.94,28.25 -15.25,-9.98 -101.47,-34.61 -126.78,-42.92l-96.03 -31.31z"/>
   <path class="fil2" d="M2527.03 569.35c-21.56,2.94 -85.43,-6.25 -96.86,4.6 12.25,7.33 79.28,2.18 98.69,3.29 1.14,13.19 0.28,23.49 0,36.48 -0.32,14.84 -2.32,26.87 3.47,35.08 8.3,-7.48 4.17,-147.38 2.65,-151.25 -9.98,3.68 -5.62,1.96 -5.61,33.98 0,12.07 1.69,27.31 -2.34,37.82z"/>
   <path class="fil2" d="M2430.22 1756.43c9.72,7.04 80.18,1.88 98.56,3.45 1.69,16.47 -4.97,61.86 3.54,72.3 8.65,-9.28 3.51,-149.66 2.65,-151.58 -9.7,4.19 -5.81,23.4 -5.92,33.41 -0.15,12.98 0.28,25.88 -0.66,38.29 -19,0.71 -88.26,-4.11 -98.17,4.14z"/>
   <path class="fil2" d="M1292.45 648.45c11.89,-0.15 7.9,-7.04 7.59,-32.08 -0.54,-43.82 -3.05,-40.08 23.28,-39.2 9.38,0.31 16.3,0.87 23.89,-3.22 -6.73,-9.72 -34.69,-2.63 -47.02,-5.71l-0.04 -68.53c-3.67,-3.55 -0.05,-1.45 -7.22,-2.31 0.4,21.11 -0.29,48.49 -0.55,71.97 -23.53,0.59 -38.21,-3.47 -47.08,4.58 0.67,0.39 1.64,0.2 2.05,1.1 0.42,0.91 1.53,0.82 2.12,0.97 14.63,3.75 25.22,-1.43 43.07,2.32l-0.1 70.1z"/>
   <path class="fil2" d="M2431.21 1459.48c4.51,4.43 0.72,4.61 21.5,4.3l71.48 0.41c0.64,0.11 1.82,1.49 2.27,0.79 0.45,-0.7 1.5,0.58 2.23,0.92 3.25,25.95 -4.41,60.16 3.63,70.42 6.51,-6.05 4.3,-20.4 4.13,-34.41 -0.16,-13.22 -0.18,-26.54 -0.26,-39.77 -0.1,-17.47 3.23,-63.61 -1.22,-77.03 -14.9,7.21 0.46,46.48 -7.3,69.44 -14.45,6.63 -79.48,-3.99 -96.47,4.94z"/>
   <path class="fil2" d="M565.05 649c9.25,-16.02 -1.33,-51.71 4.47,-70.61 21.26,-6.68 80.04,5.3 96.33,-4.44 -1.96,-2.13 4.26,-4.6 -18.48,-4.51 -19.42,0.08 -65.34,1.95 -78.83,-1.05 -0.79,-12.49 3.46,-62.21 -3.49,-71.27 -8.27,10.36 -3.32,112.07 -3.92,132.55 -0.7,23.98 1.68,16.36 3.92,19.33z"/>
   <path class="fil2" d="M1509.59 301.94l10.4 1.26c2.85,9.93 8.23,40.17 -8.54,39.03 -11.96,-0.81 -11.75,-29.78 -1.87,-40.29zm-6.71 -10.24c-24.25,12.2 -16.05,76.45 20.01,60.38 24.01,-10.71 15.11,-78.05 -20.01,-60.38z"/>
   <path class="fil2" d="M1292.87 1536.3c11.64,0.78 3.76,1.01 6.83,-2.59l0.35 -68.99c26.2,-4.62 36.87,4.53 47.21,-5.25 -13.36,-8.16 -31.36,1.46 -45.62,-4.98 -5.31,-14.68 -1.2,-47.99 -1.53,-66.6 -4.16,-4.67 0.35,-1.47 -7.44,-2.97l-0.42 70.01c-14.71,3.8 -37.56,-2.67 -47.62,4.89 8.83,7.7 32.95,3.95 47.66,4.43l0.57 72.04z"/>
   <path class="fil2" d="M2527.75 272.09l-8.58 2.14c-3.17,0.23 -9.74,-0.19 -13.33,-0.24l-68.82 0.6c-6.47,1.36 -4.22,1.36 -6.22,2.42 2.27,1.72 -3.6,4.61 19.22,4.19 8.9,-0.16 17.73,-0.4 26.64,-0.39 15.86,0.03 37.15,-1.97 51.97,2.03 1.5,15.45 -3.52,60.7 3.7,70.07 7.39,-4.98 3.51,-5.87 4.12,-33.49l-0.06 -103.62c-0.03,-11.56 2.12,-10 -4.07,-14.57 -9.14,13.96 1.1,53.76 -4.58,70.85z"/>
   <path class="fil2" d="M1832.38 1732.11c-10.37,-7.37 -14.66,-31.19 2.65,-40.21 15.27,9.28 15.73,37.61 -2.65,40.21zm-19.6 -7.49c4.84,32.51 55.46,26.74 43.38,-26.21 -6.5,-28.5 -51.45,-28.04 -43.38,26.21z"/>
   <path class="fil2" d="M1299.14 355.24l0.95 -73.17c14.98,-2.73 32.73,0.1 38.85,-0.76 8.71,-1.22 4.53,-0.75 8.66,-4.31 -11.17,-7.02 -23.67,-0.74 -46.93,-3.54l-0.51 -65.43c-2.74,-11.05 0.5,-3.74 -4.84,-7.59 -9.7,31.96 10.46,70.8 -11.71,73.61 -2.29,0.29 -10.45,-0.03 -13.28,-0.08l-18.41 0.38c-5.19,1.13 -3.1,0.77 -6.06,2.65 6.76,9.67 18.08,1.73 46.16,5.07l0.55 68.66c4.05,3.78 0.55,1.01 6.57,4.51z"/>
   <path class="fil2" d="M1292.41 1831.89c11.78,-0.25 7.96,-7.38 7.66,-33.04 -0.51,-43.26 -4.39,-39.74 23.25,-39.3l18.31 -0.57c4.78,-1.08 3.13,-0.88 5.71,-2.55 -3.52,-3.65 2.47,-4.22 -18.57,-3.89 -9.02,0.14 -19.02,0.11 -28.01,-0.19l-0.85 -70.15 -6.28 -1.67 -1.48 71.36 -39.71 0.49c-8.82,1.91 -3.48,1 -6.74,4.05l11.17 3.28c3.02,0.24 10.07,-0.11 13.45,-0.18 8.94,-0.16 13.32,-0.97 22.75,1.46l-0.66 70.89z"/>
   <path class="fil2" d="M568.25 1464.55c30.69,-3.24 86.16,4.61 97.81,-5.07 -1.01,-0.64 1.47,-2.28 -10.67,-3.14l-37.31 0.32c-15.34,-0.02 -34.45,0.96 -49.71,-0.71l-0.15 -71.66c-6.29,3.02 -3.71,-0.74 -6.43,6.26 -0.9,2.31 -0.67,7.79 -0.67,10.47l0.08 98.23c-0.02,7 -0.45,14.48 -0.38,21.34 0.1,9.79 0.13,10.79 4.23,15.98 2.14,-3.09 1.49,2.51 3.16,-8.08l0.04 -63.94z"/>
   <path class="fil2" d="M1804.14 1750.22c0.03,-13.69 3.8,-64.36 -0.93,-69.75 -4.55,3.46 -5.22,0.82 -5.67,17.53 -0.41,15.2 1.14,44.22 -1.53,53.99 -8.14,1.11 -16.35,0.82 -24.63,0.58 -22.03,-0.62 -17.03,0.13 -20.95,3.86 10.34,6.67 32.69,2.12 47.25,3.21l0.16 31.26c0.24,31.41 -4.22,32.56 6.13,40.7 1.74,-98.6 -6.22,-65.52 39.09,-71.97l6.48 -2.1c0.36,-0.83 1.25,-0.7 1.85,-1.09 -7.45,-9.51 -34.63,-2.53 -47.25,-6.21z"/>
   <path class="fil2" d="M1844.94 1463.76c13.14,-3.41 1.65,0.26 7.27,-4.28l-11.71 -3.25c-2.16,-0.14 -8.13,0.22 -10.76,0.25 -8.25,0.09 -16.35,-0.08 -24.64,0.1 -0.88,-12.96 -0.53,-26.48 -0.44,-39.51 0.07,-9.86 3.58,-26.69 -4.1,-31.9 -7.22,13.43 -2.21,53.47 -3,70.91 -11.83,1.03 -37.67,-2.7 -47.19,3.41 5.54,9.51 35.21,3.62 47.07,4.7 0.45,12.56 0.15,25.15 0.23,37.72l0.35 28.87c3.19,8.53 -3.06,-0.58 6.2,5.67l0.48 -72.53 40.22 -0.15z"/>
   <path class="fil2" d="M1324.96 1692.45c12.51,0.42 14.74,2.14 15.6,16.11 0.58,9.39 -0.12,20.66 -7.75,23.22 -18.35,6.16 -12.55,-30.79 -7.85,-39.33zm-1.27 -11.05c-14.6,4.59 -17.94,19.33 -15.95,37.84 1.74,16.19 11.27,30.86 30.56,23.69 23.27,-8.65 20.73,-72.64 -14.61,-61.54z"/>
   <path class="fil2" d="M1578.34 1731.74c-5.3,-11.03 -4.94,-27.33 -0.43,-38.71 14.37,-1.29 16.23,6.3 15.92,20.99 -0.31,14.29 -2.13,18.18 -15.49,17.72zm16.06 11.46c9.13,-12.41 15.82,-20.79 11.73,-41.76 -2.61,-13.37 -13.96,-24.48 -29.02,-19.82 -13.46,4.17 -17.77,21.49 -15.01,40.34 2.94,20.04 10.75,23.64 32.29,21.24z"/>
   <path class="fil2" d="M565.05 353.55c1.73,-2.45 1.5,-0.24 2.62,-5.3 0.69,-3.12 0.74,-6.88 0.78,-10.12l0.14 -55.31c30.46,-7.69 82,5.47 97.62,-5.82l-8.28 -2.93c-12.43,-1.67 -69.45,1.98 -88.94,-0.96 -1.72,-11.84 -0.82,-23.88 -0.77,-35.88l-3.18 -35.44c-7.4,11.06 -3.98,62.3 -3.78,75.21 0.26,17 -4.59,66.37 3.78,76.55z"/>
   <path class="fil2" d="M1797.43 567.45c-17.84,8.51 -38.93,-4.75 -47.34,6.5 6.65,4.3 8.42,3.11 21.28,2.93 8.91,-0.13 17.6,-0.1 26.51,0.26l-0.71 63.13c2.35,8.46 -0.51,3.1 6.03,8.16l1.67 -71.54c8.42,0.26 16.54,0.11 24.89,0.15 11.28,0.07 16.02,1.75 22.9,-3.55 -8.88,-8.45 -34.61,-3.95 -47.92,-3.67l-0.24 -72.27c-10.31,3.6 -6.64,-0.31 -6.75,31.33 -0.05,12.85 -0.22,25.74 -0.33,38.57z"/>
   <path class="fil2" d="M1259.7 342.13c-16.08,-12.23 -8.94,-41.56 2.65,-40.98 11.19,0.56 20.9,37.4 -2.65,40.98zm11.45 -52.16c-47.49,-2.87 -34.45,55.85 -17.78,62.61 17.03,6.91 28.81,-5.85 30.81,-19.87 3.86,-27.1 -2.42,-28.43 -13.03,-42.75z"/>
   <path class="fil2" d="M1797.55 226.61l-0.17 47.13c-17.78,1.86 -38.29,-2.44 -46.79,3.26 5.1,8.41 34.54,3.62 45.52,4.32 3.26,10.35 0.7,38.62 1.39,56.86 0.45,11.82 -2.37,11.43 5.72,15.02l1.71 -71.86c27.85,-1.84 36.41,4.34 47.19,-4.33 -14.15,-8.49 -28.62,1.03 -47.04,-4.5l-0.38 -61.91c-2.31,-9.26 0.42,-3.45 -5.85,-9.05l-1.29 25.06z"/>
   <path class="fil2" d="M1762.38 343.15c-9.82,-12.04 -11.54,-34.37 3.72,-41.7 11.64,4.89 11.56,8.37 11.1,23.37 -0.41,13.39 -2.46,16.73 -14.82,18.33zm-4.65 -51.24c-26.68,12.56 -13.26,77.89 18.99,59.43 22.9,-13.11 13.98,-74.94 -18.99,-59.43z"/>
   <path class="fil2" d="M569.48 1760.91c22.87,-7.44 77,6.9 96.52,-4.48l-42.62 -4.15c-42.13,-0.13 -55.23,6.89 -55.27,-11.76l-0.2 -55.25c-1.43,-6.4 0.09,-1.66 -2.85,-4.85 -6.91,9.01 -3.66,104.01 -4.13,131.72 -0.43,24.98 1.9,16.42 4.13,19.51l4.43 -70.73z"/>
   <path class="fil2" d="M1501.36 1682.19l-5.31 27.17c18.73,7.75 34.93,-8.17 27.19,21.55 -14.68,2.56 -16.93,-4.21 -25.91,4.31 0.25,0.61 -1.38,12.44 22.13,8.96 9.23,-1.37 15.5,-5.79 17.52,-15.37 6.59,-31.35 -17.51,-23.92 -28.04,-33.13 10.02,-2.07 15.83,0.13 24.64,-5.53 -1.52,-9.93 -0.38,-8.96 -11.39,-9.8 -5.11,-0.39 -15.81,0.44 -20.82,1.85z"/>
   <path class="fil2" d="M944.17 1692.8c11.22,8.42 8.93,-1.37 24.49,2.16 -2.55,25.82 -26.99,-1.91 -24.75,48.79 19.96,1.35 32.37,3.18 38.01,-5.88 -6.91,-13.63 -9.13,-1.77 -24.6,-7.95 3.04,-19.17 29.27,-11.84 24.01,-36.61 -3.78,-17.78 -34.2,-17.96 -37.16,-0.51z"/>
   <path class="fil2" d="M2115.86 291.05l0.33 9.83c7.67,3.75 14.11,1.42 23.78,2.06 -4.73,20.29 -42.95,19.9 -15.77,50.37 16.28,1.73 25.99,1.47 28.66,-12.53 -16.41,-9.16 -11.4,5.97 -25.25,-3.23 4.74,-18.89 29.71,-5.83 25.27,-46.99l-37.01 0.48z"/>
   <path class="fil2" d="M945.02 292.91c-0.11,11.43 -3.95,7.42 7.37,9.65 3.35,0.66 3.48,-0.24 7.35,0.46l9.09 3.15c-4.81,12.83 -16.92,9.41 -24.63,26.51 0.89,28.8 37.84,27.8 35.97,6.32 -14.5,-3.73 -6.21,2.94 -22.23,1.05 -1.69,-23.3 29.41,-5.14 24.39,-47.9 -10.58,-2.32 -28.34,-4.64 -37.31,0.76z"/>
   <path class="fil2" d="M2073.85 1744.19c17.64,0.03 15.43,-3.09 17.12,-6.32 -4.96,-9.78 5.14,-3.76 -11.81,-6.69 -5.87,-1.02 -5.35,1.12 -12.76,-1.48 4.57,-11.54 14.58,-14.56 23.88,-20.92l-0.44 -21.57c-15.21,-10.42 -34.83,-11.33 -34.78,8.41 14.4,3.66 9.11,-5.79 22.95,0.44 -1.49,21.6 -27.42,2.81 -25,46.77 6.76,0.74 14.03,1.34 20.85,1.36z"/>
   <path class="fil2" d="M2137.49 1743.98c13.01,-0.53 11.27,1.39 15.27,-6.11 -4.55,-9.98 -12.41,-5.37 -25.08,-6.53 -0.58,-18.67 29.54,-13.87 24.45,-37.52 -1.61,-7.47 -7.29,-13.74 -17.39,-13.86 -19.35,-0.24 -19.01,10.72 -19.59,12.84 10.81,8.56 11.54,-3.4 23.59,3.41 -0.25,17.35 -27.33,9.68 -24.51,39.14 0.89,9.34 9.88,9.18 23.27,8.64z"/>
   <path class="fil2" d="M2054.14 291.72c4,13.23 6.09,9.17 16.57,11.34l6.84 2.1c0.57,0.2 1.5,0.55 2.14,1.01 -7.66,15.05 -30.11,14.44 -23.82,36.06 4.86,16.71 37.65,15.48 34.74,-2.32l-4.2 -1.01c-11.77,-0.11 -9.62,4.15 -14.73,1.91 -16.54,-7.23 12.42,-14.03 18.32,-26.24 3.55,-7.36 4.75,-15.65 2.22,-22.16 -9.02,-3.62 -28.63,-3.89 -38.07,-0.68z"/>
   <path class="fil2" d="M1005.33 291.56c1.79,16.18 7.67,10.77 24.29,11.33 -3.78,17.89 -10.4,11.11 -19.64,21.37 -24.74,27.47 37.77,42.61 30.62,15.7l-3.94 -0.98c-12.16,-0.74 -6.86,1.87 -18.04,1.38 0.27,-23.44 30.91,-7.72 23.84,-49.77l-37.13 0.97z"/>
   <path class="fil2" d="M1004.25 1743.49c7.06,0.4 15.49,0.77 22.5,0.5 13.81,-0.53 11.17,2.03 15.07,-6.11 -5.88,-12.51 -10.22,-1.73 -23.47,-7.94 -4.38,-14.74 27.95,-10.94 23.32,-36.25 -3.61,-19.7 -37.99,-17.19 -35.41,0.31 0.72,0.33 1.72,0.49 2.3,0.57l4.61 0.63c11.45,0.35 6.95,-5.79 13.71,0.43 15.38,14.13 -28.12,2.73 -22.65,47.88z"/>
   <path class="fil2" d="M1563.77 294.62c-10.29,45.14 6,32.71 21.32,40.71 -2.53,21.23 -19.7,-10.45 -20.59,15.91 6.99,3.34 21.73,2.17 31.66,2.03l2.67 -29.57c-18.04,-4.16 -32.88,7.14 -26.47,-18.16 14.86,-8.3 14.22,2.66 25.88,-4.76 -2.62,-17.35 -21.52,-10.68 -34.47,-6.16z"/>
   <path class="fil2" d="M1292.64 792.24c0.64,20.74 -4.24,143.01 4.18,152 8.41,-10.95 2.41,-123.66 3.46,-147.59 -4.2,-5.49 0.62,-1.58 -7.64,-4.41z"/>
   <path class="fil2" d="M2532.33 944.28c7.39,-7.69 4.53,-90.96 4.27,-113.16 -0.12,-10.77 3.22,-31.87 -4.27,-37.87 -7.81,12.78 -2.91,56.7 -3,74.98 -0.08,15.63 -4.77,67.08 3,76.05z"/>
   <path class="fil2" d="M1800.56 1239.96c3.76,-4.19 0.55,4.62 3.44,-4.58l0.84 -30.42c-0.11,-13.25 -0.09,-26.51 -0.16,-39.77 -0.08,-14.21 1.98,-66.7 -1.47,-76.07 -12.29,4.92 -5.52,59.11 -5.48,73.42 0.05,17.73 -5.15,65.16 2.83,77.42z"/>
   <path class="fil2" d="M565.05 1088.6c-8.22,10.5 -3.85,59.59 -3.78,76.58 0.05,12.64 -3.8,64.74 3.78,74.87 7.11,-11.21 3,-100.29 3.08,-117.3 0.03,-6.22 0.15,-12.46 0.18,-18.67 0.05,-11.52 0.41,-10.81 -3.26,-15.49z"/>
   <path class="fil2" d="M2532.33 1240.05c0.49,-6.76 4.1,8.12 4.07,-16.38l0.13 -61.13c-0.06,-13.26 0.03,-26.51 -0.06,-39.77 -0.07,-9.54 3.59,-29.15 -4.14,-33.94 -6.6,9.39 -3.09,60.8 -3.01,76.36l-0.1 68.76c1.16,5.19 1.02,3.14 3.11,6.1z"/>
   <path class="fil2" d="M1800.56 944.39c0.76,-0.74 3.7,2.58 4.24,-12.34l-0.13 -100.93c0.11,-10.95 3.9,-31.22 -4.11,-37.75 -5.19,9.45 -5.26,143.41 0,151.02z"/>
   <path class="fil2" d="M565.05 793.38c-4,5.53 -1.24,-6.67 -3.78,8.44l-0.01 108.84c0.22,20.78 -3.55,25.63 3.78,34.12 7.89,-11.63 3.03,-59.02 3.02,-76.55l-0.06 -68.87c-1.06,-5.5 -1.08,-3.2 -2.96,-5.99z"/>
   <path class="fil2" d="M1292.98 1089l0.98 -0.69 -1.34 143.3c1.74,10.21 1.54,5.37 4.2,8.75 3.81,-6.01 3.31,-6.35 3.4,-16.8l-0.5 -132.62 -6.73 -1.95z"/>
   <path class="fil2" d="M1264.64 1698.43c14.08,21.65 -2.98,27.62 8.32,44.84 13.31,-0.45 9.77,-1.72 9.65,-29.26 -0.07,-15.62 2.36,-24.03 -4.49,-33.9 -7.75,3.1 -11.53,6.04 -16.2,12.68 0.45,0.76 1.3,3.35 1.65,3.95 0.27,0.45 0.76,1.2 1.07,1.68z"/>
   <path class="fil2" d="M1311.77 352.24c8.77,2.12 13.47,-4.24 18.12,-11.61 -9.4,-14.7 -8.58,-3.79 -8.27,-34.47 0.16,-14.61 2.21,-13.76 -9.75,-16.31 -4.23,14.47 -5.16,48.34 -0.1,62.38z"/>
   <path class="fil2" d="M1816.56 354.24c9.92,-1.8 14.15,-7.13 18.68,-13.61 -4.67,-11.07 -8.04,-4.13 -9.16,-21 -0.61,-9.3 1.78,-20.49 -1.65,-28.48 -9.35,-0.08 -10.38,-6.39 -9.79,25.57 0.24,12.86 -0.64,26.53 1.93,37.52z"/>
   <path class="fil2" d="M1766.8 1692.8c1.29,1.72 6.74,10.99 6.89,11.41 7.27,19.47 -11.87,37.27 12.86,39.44l-1.11 -62.27c-11.52,1.4 -12.8,5.1 -18.64,11.41z"/>
   <path class="fil0" d="M1259.7 342.13c23.56,-3.58 13.84,-40.42 2.65,-40.98 -11.59,-0.58 -18.73,28.75 -2.65,40.98z"/>
   <path class="fil0" d="M1762.38 343.15c12.36,-1.6 14.4,-4.94 14.82,-18.33 0.46,-15 0.54,-18.48 -11.1,-23.37 -15.25,7.33 -13.53,29.66 -3.72,41.7z"/>
   <path class="fil0" d="M1509.59 301.94c-9.89,10.52 -10.09,39.48 1.87,40.29 16.77,1.14 11.38,-29.1 8.54,-39.03l-10.4 -1.26z"/>
   <path class="fil0" d="M1324.96 1692.45c-4.7,8.54 -10.5,45.49 7.85,39.33 7.63,-2.56 8.33,-13.83 7.75,-23.22 -0.86,-13.97 -3.09,-15.69 -15.6,-16.11z"/>
   <path class="fil0" d="M1832.38 1732.11c18.38,-2.6 17.92,-30.93 2.65,-40.21 -17.31,9.02 -13.02,32.84 -2.65,40.21z"/>
   <path class="fil1" d="M1578.34 1731.74c13.36,0.46 15.18,-3.43 15.49,-17.72 0.31,-14.69 -1.55,-22.28 -15.92,-20.99 -4.5,11.38 -4.87,27.67 0.43,38.71z"/>
  </g>
 </g>
</svg>

